<svg width="40" height="41" viewBox="0 0 40 41" fill="none" xmlns="http://www.w3.org/2000/svg">
<path d="M20 30.875C20.5667 30.875 21.042 30.683 21.426 30.299C21.8087 29.9163 22 29.4417 22 28.875V20.825C22 20.2583 21.8087 19.7917 21.426 19.425C21.042 19.0583 20.5667 18.875 20 18.875C19.4333 18.875 18.9587 19.0663 18.576 19.449C18.192 19.833 18 20.3083 18 20.875V28.925C18 29.4917 18.192 29.9583 18.576 30.325C18.9587 30.6917 19.4333 30.875 20 30.875ZM20 14.875C20.5667 14.875 21.042 14.683 21.426 14.299C21.8087 13.9163 22 13.4417 22 12.875C22 12.3083 21.8087 11.833 21.426 11.449C21.042 11.0663 20.5667 10.875 20 10.875C19.4333 10.875 18.9587 11.0663 18.576 11.449C18.192 11.833 18 12.3083 18 12.875C18 13.4417 18.192 13.9163 18.576 14.299C18.9587 14.683 19.4333 14.875 20 14.875ZM20 40.875C17.2333 40.875 14.6333 40.3497 12.2 39.299C9.76667 38.2497 7.65 36.825 5.85 35.025C4.05 33.225 2.62533 31.1083 1.576 28.675C0.525334 26.2417 0 23.6417 0 20.875C0 18.1083 0.525334 15.5083 1.576 13.075C2.62533 10.6417 4.05 8.525 5.85 6.725C7.65 4.925 9.76667 3.49967 12.2 2.449C14.6333 1.39967 17.2333 0.875 20 0.875C22.7667 0.875 25.3667 1.39967 27.8 2.449C30.2333 3.49967 32.35 4.925 34.15 6.725C35.95 8.525 37.3747 10.6417 38.424 13.075C39.4747 15.5083 40 18.1083 40 20.875C40 23.6417 39.4747 26.2417 38.424 28.675C37.3747 31.1083 35.95 33.225 34.15 35.025C32.35 36.825 30.2333 38.2497 27.8 39.299C25.3667 40.3497 22.7667 40.875 20 40.875ZM20 36.875C24.4333 36.875 28.2087 35.317 31.326 32.201C34.442 29.0837 36 25.3083 36 20.875C36 16.4417 34.442 12.6663 31.326 9.549C28.2087 6.433 24.4333 4.875 20 4.875C15.5667 4.875 11.792 6.433 8.676 9.549C5.55867 12.6663 4 16.4417 4 20.875C4 25.3083 5.55867 29.0837 8.676 32.201C11.792 35.317 15.5667 36.875 20 36.875Z" fill="white"/>
</svg>
