<svg width="48" height="49" viewBox="0 0 48 49" fill="none" xmlns="http://www.w3.org/2000/svg">
<path d="M24 29.3745C26.4853 29.3745 28.5 27.3598 28.5 24.8745C28.5 22.3892 26.4853 20.3745 24 20.3745C21.5147 20.3745 19.5 22.3892 19.5 24.8745C19.5 27.3598 21.5147 29.3745 24 29.3745Z" stroke="white" stroke-width="4.5" stroke-linecap="round" stroke-linejoin="round"/>
<path d="M36.7266 30.0342C36.4977 30.553 36.4294 31.1284 36.5305 31.6863C36.6317 32.2443 36.8977 32.7591 37.2942 33.1645L37.3974 33.2677C37.7172 33.5871 37.9709 33.9665 38.144 34.3841C38.3171 34.8017 38.4062 35.2493 38.4062 35.7013C38.4062 36.1534 38.3171 36.601 38.144 37.0186C37.9709 37.4362 37.7172 37.8156 37.3974 38.135C37.0779 38.4549 36.6985 38.7086 36.281 38.8817C35.8634 39.0548 35.4157 39.1439 34.9637 39.1439C34.5117 39.1439 34.064 39.0548 33.6464 38.8817C33.2289 38.7086 32.8495 38.4549 32.53 38.135L32.4268 38.0318C32.0215 37.6353 31.5066 37.3694 30.9487 37.2682C30.3908 37.167 29.8153 37.2353 29.2966 37.4643C28.7879 37.6823 28.354 38.0443 28.0484 38.5057C27.7428 38.9672 27.5788 39.5079 27.5766 40.0613V40.3537C27.5766 41.266 27.2142 42.141 26.5691 42.7861C25.924 43.4312 25.0491 43.7936 24.1368 43.7936C23.2245 43.7936 22.3496 43.4312 21.7045 42.7861C21.0594 42.141 20.697 41.266 20.697 40.3537V40.1989C20.6836 39.6297 20.4994 39.0775 20.1681 38.6144C19.8368 38.1512 19.3739 37.7984 18.8394 37.6019C18.3207 37.3729 17.7452 37.3046 17.1873 37.4058C16.6294 37.5069 16.1145 37.7729 15.7092 38.1694L15.606 38.2726C15.2865 38.5925 14.9071 38.8462 14.4896 39.0193C14.072 39.1924 13.6244 39.2815 13.1723 39.2815C12.7203 39.2815 12.2726 39.1924 11.8551 39.0193C11.4375 38.8462 11.0581 38.5925 10.7386 38.2726C10.4188 37.9532 10.1651 37.5738 9.99197 37.1562C9.81886 36.7386 9.72976 36.291 9.72976 35.8389C9.72976 35.3869 9.81886 34.9393 9.99197 34.5217C10.1651 34.1041 10.4188 33.7247 10.7386 33.4053L10.8418 33.3021C11.2383 32.8967 11.5043 32.3819 11.6055 31.8239C11.7066 31.266 11.6383 30.6906 11.4094 30.1718C11.1914 29.6631 10.8294 29.2293 10.3679 28.9237C9.90648 28.6181 9.36575 28.4541 8.81231 28.4519H8.51992C7.60762 28.4519 6.73268 28.0895 6.08758 27.4444C5.44249 26.7993 5.08008 25.9243 5.08008 25.012C5.08008 24.0997 5.44249 23.2248 6.08758 22.5797C6.73268 21.9346 7.60762 21.5722 8.51992 21.5722H8.67471C9.244 21.5589 9.79611 21.3746 10.2593 21.0433C10.7224 20.7121 11.0752 20.2491 11.2718 19.7147C11.5007 19.1959 11.569 18.6205 11.4679 18.0626C11.3667 17.5046 11.1007 16.9898 10.7042 16.5844L10.601 16.4812C10.2812 16.1618 10.0275 15.7824 9.85437 15.3648C9.68126 14.9472 9.59216 14.4996 9.59216 14.0475C9.59216 13.5955 9.68126 13.1479 9.85437 12.7303C10.0275 12.3127 10.2812 11.9333 10.601 11.6139C10.9205 11.294 11.2999 11.0403 11.7175 10.8672C12.135 10.6941 12.5827 10.605 13.0347 10.605C13.4868 10.605 13.9344 10.6941 14.352 10.8672C14.7696 11.0403 15.1489 11.294 15.4684 11.6139L15.5716 11.7171C15.9769 12.1136 16.4918 12.3795 17.0497 12.4807C17.6076 12.5819 18.1831 12.5136 18.7018 12.2846H18.8394C19.3481 12.0666 19.782 11.7046 20.0876 11.2432C20.3932 10.7817 20.5572 10.241 20.5594 9.68755V9.39516C20.5594 8.48286 20.9218 7.60792 21.5669 6.96283C22.212 6.31773 23.0869 5.95532 23.9992 5.95532C24.9115 5.95532 25.7864 6.31773 26.4315 6.96283C27.0766 7.60792 27.439 8.48286 27.439 9.39516V9.54996C27.4413 10.1034 27.6052 10.6441 27.9108 11.1056C28.2164 11.567 28.6503 11.929 29.159 12.147C29.6777 12.376 30.2532 12.4443 30.8111 12.3431C31.369 12.242 31.8839 11.976 32.2892 11.5795L32.3924 11.4763C32.7119 11.1564 33.0913 10.9027 33.5089 10.7296C33.9264 10.5565 34.3741 10.4674 34.8261 10.4674C35.2782 10.4674 35.7258 10.5565 36.1434 10.7296C36.5609 10.9027 36.9403 11.1564 37.2598 11.4763C37.5796 11.7957 37.8333 12.1751 38.0064 12.5927C38.1796 13.0103 38.2687 13.4579 38.2687 13.91C38.2687 14.362 38.1796 14.8096 38.0064 15.2272C37.8333 15.6448 37.5796 16.0242 37.2598 16.3436L37.1566 16.4468C36.7601 16.8522 36.4941 17.367 36.3929 17.925C36.2918 18.4829 36.3601 19.0583 36.589 19.5771V19.7147C36.807 20.2234 37.1691 20.6572 37.6305 20.9628C38.0919 21.2684 38.6327 21.4324 39.1861 21.4346H39.4785C40.3908 21.4346 41.2657 21.797 41.9108 22.4421C42.5559 23.0872 42.9183 23.9621 42.9183 24.8744C42.9183 25.7868 42.5559 26.6617 41.9108 27.3068C41.2657 27.9519 40.3908 28.3143 39.4785 28.3143H39.3237C38.7703 28.3165 38.2295 28.4805 37.7681 28.7861C37.3067 29.0917 36.9446 29.5255 36.7266 30.0342V30.0342Z" stroke="white" stroke-width="3.75" stroke-linecap="round" stroke-linejoin="round"/>
</svg>
