<svg width="42" height="42" viewBox="0 0 42 42" fill="none" xmlns="http://www.w3.org/2000/svg">
<path d="M21.0005 25.3745C23.4858 25.3745 25.5005 23.3598 25.5005 20.8745C25.5005 18.3892 23.4858 16.3745 21.0005 16.3745C18.5152 16.3745 16.5005 18.3892 16.5005 20.8745C16.5005 23.3598 18.5152 25.3745 21.0005 25.3745Z" stroke="white" stroke-width="4.5" stroke-linecap="round" stroke-linejoin="round"/>
<path d="M33.7271 26.0343C33.4982 26.5531 33.4299 27.1285 33.531 27.6865C33.6322 28.2444 33.8982 28.7592 34.2947 29.1646L34.3979 29.2678C34.7177 29.5873 34.9714 29.9666 35.1445 30.3842C35.3176 30.8018 35.4067 31.2494 35.4067 31.7015C35.4067 32.1535 35.3176 32.6011 35.1445 33.0187C34.9714 33.4363 34.7177 33.8157 34.3979 34.1352C34.0784 34.455 33.699 34.7087 33.2814 34.8818C32.8639 35.0549 32.4162 35.144 31.9642 35.144C31.5121 35.144 31.0645 35.0549 30.6469 34.8818C30.2293 34.7087 29.85 34.455 29.5305 34.1352L29.4273 34.032C29.022 33.6355 28.5071 33.3695 27.9492 33.2683C27.3913 33.1671 26.8158 33.2354 26.297 33.4644C25.7883 33.6824 25.3545 34.0444 25.0489 34.5059C24.7433 34.9673 24.5793 35.508 24.5771 36.0615V36.3539C24.5771 37.2662 24.2147 38.1411 23.5696 38.7862C22.9245 39.4313 22.0496 39.7937 21.1373 39.7937C20.225 39.7937 19.35 39.4313 18.705 38.7862C18.0599 38.1411 17.6974 37.2662 17.6974 36.3539V36.1991C17.6841 35.6298 17.4999 35.0777 17.1686 34.6145C16.8373 34.1513 16.3744 33.7985 15.8399 33.602C15.3212 33.373 14.7457 33.3047 14.1878 33.4059C13.6299 33.5071 13.115 33.7731 12.7097 34.1696L12.6065 34.2728C12.287 34.5926 11.9076 34.8463 11.49 35.0194C11.0725 35.1925 10.6248 35.2816 10.1728 35.2816C9.72074 35.2816 9.27313 35.1925 8.85554 35.0194C8.43795 34.8463 8.05857 34.5926 7.73911 34.2728C7.41928 33.9533 7.16556 33.5739 6.99245 33.1563C6.81935 32.7387 6.73025 32.2911 6.73025 31.8391C6.73025 31.387 6.81935 30.9394 6.99245 30.5218C7.16556 30.1042 7.41928 29.7248 7.73911 29.4054L7.8423 29.3022C8.23881 28.8968 8.50479 28.382 8.60595 27.8241C8.70712 27.2661 8.63882 26.6907 8.40987 26.1719C8.19185 25.6632 7.82984 25.2294 7.3684 24.9238C6.90696 24.6182 6.36624 24.4542 5.81279 24.452H5.52041C4.60811 24.452 3.73317 24.0896 3.08807 23.4445C2.44298 22.7994 2.08057 21.9245 2.08057 21.0122C2.08057 20.0999 2.44298 19.2249 3.08807 18.5798C3.73317 17.9347 4.60811 17.5723 5.52041 17.5723H5.6752C6.24448 17.559 6.7966 17.3747 7.25976 17.0435C7.72293 16.7122 8.07572 16.2492 8.27228 15.7148C8.50123 15.1961 8.56952 14.6206 8.46836 14.0627C8.3672 13.5047 8.10121 12.9899 7.70471 12.5846L7.60151 12.4814C7.28169 12.1619 7.02797 11.7825 6.85486 11.3649C6.68175 10.9473 6.59265 10.4997 6.59265 10.0477C6.59265 9.59562 6.68175 9.14801 6.85486 8.73042C7.02797 8.31283 7.28169 7.93345 7.60151 7.61398C7.92098 7.29416 8.30036 7.04044 8.71795 6.86733C9.13554 6.69422 9.58315 6.60512 10.0352 6.60512C10.4872 6.60512 10.9349 6.69422 11.3525 6.86733C11.77 7.04044 12.1494 7.29416 12.4689 7.61398L12.5721 7.71718C12.9774 8.11368 13.4923 8.37967 14.0502 8.48083C14.6081 8.58199 15.1836 8.5137 15.7023 8.28475H15.8399C16.3486 8.06673 16.7825 7.70472 17.0881 7.24328C17.3937 6.78184 17.5576 6.24112 17.5599 5.68767V5.39529C17.5599 4.48298 17.9223 3.60805 18.5674 2.96295C19.2125 2.31786 20.0874 1.95544 20.9997 1.95544C21.912 1.95544 22.7869 2.31786 23.432 2.96295C24.0771 3.60805 24.4395 4.48298 24.4395 5.39529V5.55008C24.4417 6.10353 24.6057 6.64425 24.9113 7.10569C25.2169 7.56713 25.6508 7.92914 26.1595 8.14716C26.6782 8.37611 27.2537 8.4444 27.8116 8.34324C28.3695 8.24207 28.8844 7.97609 29.2897 7.57958L29.3929 7.47639C29.7124 7.15657 30.0917 6.90285 30.5093 6.72974C30.9269 6.55663 31.3745 6.46753 31.8266 6.46753C32.2786 6.46753 32.7263 6.55663 33.1438 6.72974C33.5614 6.90285 33.9408 7.15657 34.2603 7.47639C34.5801 7.79586 34.8338 8.17523 35.0069 8.59282C35.18 9.01041 35.2691 9.45803 35.2691 9.91008C35.2691 10.3621 35.18 10.8097 35.0069 11.2273C34.8338 11.6449 34.5801 12.0243 34.2603 12.3438L34.1571 12.447C33.7606 12.8523 33.4946 13.3671 33.3934 13.9251C33.2923 14.483 33.3606 15.0585 33.5895 15.5772V15.7148C33.8075 16.2235 34.1695 16.6574 34.631 16.9629C35.0924 17.2685 35.6331 17.4325 36.1866 17.4347H36.479C37.3913 17.4347 38.2662 17.7971 38.9113 18.4422C39.5564 19.0873 39.9188 19.9623 39.9188 20.8746C39.9188 21.7869 39.5564 22.6618 38.9113 23.3069C38.2662 23.952 37.3913 24.3144 36.479 24.3144H36.3242C35.7707 24.3166 35.23 24.4806 34.7686 24.7862C34.3071 25.0918 33.9451 25.5256 33.7271 26.0343V26.0343Z" stroke="white" stroke-width="3.75" stroke-linecap="round" stroke-linejoin="round"/>
</svg>
