<svg width="22" height="15" viewBox="0 0 22 15" fill="none" xmlns="http://www.w3.org/2000/svg">
<path d="M7.60625 14.7526C7.42201 14.7526 7.24928 14.725 7.08807 14.6699C6.92686 14.6157 6.77716 14.5229 6.63898 14.3917L0.697122 8.74813C0.443787 8.50751 0.322647 8.19559 0.333701 7.81235C0.345677 7.42999 0.478332 7.1185 0.731667 6.87788C0.985002 6.63727 1.30743 6.51696 1.69895 6.51696C2.09046 6.51696 2.41289 6.63727 2.66622 6.87788L7.60625 11.5699L19.3172 0.446862C19.5706 0.206246 19.899 0.0859375 20.3025 0.0859375C20.705 0.0859375 21.033 0.206246 21.2863 0.446862C21.5397 0.687479 21.6663 0.998967 21.6663 1.38133C21.6663 1.76457 21.5397 2.07649 21.2863 2.31711L8.57353 14.3917C8.43535 14.5229 8.28565 14.6157 8.12444 14.6699C7.96323 14.725 7.7905 14.7526 7.60625 14.7526Z" fill="white"/>
</svg>
