<svg width="40" height="40" viewBox="0 0 40 40" fill="none" xmlns="http://www.w3.org/2000/svg">
<g opacity="0.5">
<path d="M32.3055 19.9584C32.3055 17.4871 31.6434 15.2319 30.3191 13.1926C28.9948 11.153 27.2191 9.62708 24.992 8.61491C24.6463 8.45136 24.3917 8.20708 24.2281 7.88208C24.0646 7.55737 24.0445 7.22608 24.1679 6.88819C24.3162 6.52784 24.5735 6.27742 24.9399 6.13693C25.3062 5.99615 25.6772 6.00768 26.0528 6.17153C28.7625 7.40176 30.9314 9.25295 32.5594 11.7251C34.1871 14.1969 35.001 16.9412 35.001 19.9579C35.001 22.9743 34.1871 25.7188 32.5594 28.1912C30.9314 30.6637 28.7625 32.515 26.0528 33.7452C25.6772 33.9091 25.3062 33.9206 24.9399 33.7798C24.5735 33.6393 24.3162 33.3889 24.1679 33.0286C24.0445 32.6907 24.0646 32.3594 24.2281 32.0347C24.3917 31.7097 24.6463 31.4654 24.992 31.3018C27.2191 30.2897 28.9948 28.7638 30.3191 26.7242C31.6434 24.6849 32.3055 22.4296 32.3055 19.9584ZM11.6715 24.4965H6.62526C6.16486 24.4965 5.77904 24.3407 5.46782 24.0292C5.15659 23.718 5.00098 23.3321 5.00098 22.8717V17.1349C5.00098 16.6745 5.15659 16.2887 5.46782 15.9774C5.77904 15.6659 6.16486 15.5101 6.62526 15.5101H11.6715L17.0494 10.1323C17.4802 9.70151 17.9761 9.60431 18.5371 9.84065C19.0981 10.077 19.3787 10.4991 19.3787 11.1068V28.8998C19.3787 29.5076 19.0981 29.9296 18.5371 30.166C17.9761 30.4023 17.4802 30.3051 17.0494 29.8744L11.6715 24.4965ZM27.4664 20.0051C27.4664 21.1263 27.2336 22.1874 26.7681 23.1885C26.3029 24.1896 25.6757 25.0312 24.8864 25.7132C24.6318 25.8837 24.3644 25.9009 24.0844 25.7649C23.8046 25.6289 23.6647 25.4042 23.6647 25.0909V14.8258C23.6647 14.5125 23.8046 14.2878 24.0844 14.1519C24.3644 14.0159 24.6318 14.0322 24.8864 14.2008C25.6757 14.9033 26.3029 15.7659 26.7681 16.7889C27.2336 17.8121 27.4664 18.8842 27.4664 20.0051ZM16.6828 14.3419L12.8186 18.206H7.69643V21.8006H12.8186L16.6828 25.6647V14.3419Z" fill="white"/>
</g>
</svg>
