<svg width="40" height="40" viewBox="0 0 40 40" fill="none" xmlns="http://www.w3.org/2000/svg">
<path d="M9.81126 32.6778L9.88939 32.5802L9.81127 32.6778C16.1752 37.7724 25.6869 37.1628 31.397 31.4528C39.3572 23.4925 36.6304 9.57398 26.2627 5.08517C19.9131 2.33603 12.3145 4.19438 7.78443 9.31363V6.58822C7.78443 6.09507 7.59216 5.71679 7.29797 5.46351C7.00638 5.21246 6.62176 5.09 6.24177 5.09006C5.86178 5.09011 5.47718 5.21267 5.1856 5.46374C4.89143 5.71703 4.69914 6.09526 4.69914 6.58822V13.0583C4.69914 14.0797 5.51153 14.8921 6.53288 14.8921H13.003C13.4961 14.8921 13.8744 14.6998 14.1276 14.4056C14.3787 14.114 14.5012 13.7294 14.5011 13.3494C14.5011 12.9694 14.3786 12.5848 14.1275 12.2932C13.8742 11.9991 13.496 11.8068 13.003 11.8068H9.74264C13.4477 7.42128 19.2143 6.33271 24.0897 7.87779C29.0369 9.44563 33.052 13.7205 33.052 20.0015C33.052 30.5643 20.3941 37.0323 11.8715 30.323C9.51224 28.4656 7.97759 26.0923 7.26478 23.1996L7.26497 23.1995L7.2629 23.1928C6.98262 22.2799 6.08511 21.9464 5.33908 22.0621C4.96425 22.1203 4.61234 22.2929 4.38476 22.5769C4.15431 22.8646 4.06186 23.2538 4.18678 23.7175C5.00994 27.3475 6.88573 30.3356 9.81126 32.6778Z" fill="white" stroke="white" stroke-width="0.25"/>
</svg>
