<svg width="40" height="40" viewBox="0 0 40 40" fill="none" xmlns="http://www.w3.org/2000/svg">
<path d="M32.3055 19.9583C32.3055 17.4871 31.6434 15.2318 30.3191 13.1925C28.9948 11.1529 27.2191 9.62705 24.992 8.61488C24.6463 8.45133 24.3917 8.20705 24.2281 7.88205C24.0646 7.55734 24.0445 7.22605 24.1679 6.88816C24.3162 6.52781 24.5735 6.27739 24.9399 6.1369C25.3062 5.99612 25.6772 6.00765 26.0528 6.1715C28.7625 7.40173 30.9314 9.25292 32.5594 11.7251C34.1871 14.1969 35.001 16.9412 35.001 19.9579C35.001 22.9743 34.1871 25.7187 32.5594 28.1912C30.9314 30.6636 28.7625 32.515 26.0528 33.7452C25.6772 33.909 25.3062 33.9206 24.9399 33.7798C24.5735 33.6393 24.3162 33.3889 24.1679 33.0285C24.0445 32.6906 24.0646 32.3593 24.2281 32.0346C24.3917 31.7096 24.6463 31.4654 24.992 31.3018C27.2191 30.2896 28.9948 28.7638 30.3191 26.7242C31.6434 24.6849 32.3055 22.4296 32.3055 19.9583ZM11.6715 24.4964H6.62526C6.16486 24.4964 5.77904 24.3407 5.46782 24.0292C5.15659 23.7179 5.00098 23.3321 5.00098 22.8717V17.1348C5.00098 16.6744 5.15659 16.2886 5.46782 15.9774C5.77904 15.6659 6.16486 15.5101 6.62526 15.5101H11.6715L17.0494 10.1322C17.4802 9.70148 17.9761 9.60428 18.5371 9.84062C19.0981 10.077 19.3787 10.499 19.3787 11.1068V28.8998C19.3787 29.5075 19.0981 29.9296 18.5371 30.1659C17.9761 30.4023 17.4802 30.3051 17.0494 29.8743L11.6715 24.4964ZM27.4664 20.0051C27.4664 21.1263 27.2336 22.1874 26.7681 23.1885C26.3029 24.1896 25.6757 25.0311 24.8864 25.7132C24.6318 25.8836 24.3644 25.9009 24.0844 25.7649C23.8046 25.6289 23.6647 25.4042 23.6647 25.0909V14.8258C23.6647 14.5125 23.8046 14.2878 24.0844 14.1518C24.3644 14.0158 24.6318 14.0321 24.8864 14.2008C25.6757 14.9032 26.3029 15.7659 26.7681 16.7889C27.2336 17.8121 27.4664 18.8842 27.4664 20.0051ZM16.6828 14.3419L12.8186 18.206H7.69643V21.8005H12.8186L16.6828 25.6647V14.3419Z" fill="white"/>
</svg>
