<svg width="110" height="110" viewBox="0 0 110 110" fill="none" xmlns="http://www.w3.org/2000/svg">
<g clip-path="url(#clip0_4124_63494)">
<path d="M44.3401 76.7104C45.2787 76.7104 46.056 76.3957 46.6721 75.7662C47.2881 75.1368 47.5961 74.3567 47.5961 73.4261V36.5739C47.5961 35.6434 47.2786 34.8633 46.6437 34.2338C46.0088 33.6043 45.2221 33.2896 44.2835 33.2896C43.3448 33.2896 42.5675 33.6043 41.9515 34.2338C41.3355 34.8633 41.0275 35.6434 41.0275 36.5739V73.4261C41.0275 74.3567 41.345 75.1368 41.9799 75.7662C42.6148 76.3957 43.4015 76.7104 44.3401 76.7104ZM65.7165 76.7104C66.6552 76.7104 67.4325 76.3957 68.0485 75.7662C68.6645 75.1368 68.9725 74.3567 68.9725 73.4261V36.5739C68.9725 35.6434 68.655 34.8633 68.0201 34.2338C67.3852 33.6043 66.5985 33.2896 65.6599 33.2896C64.7213 33.2896 63.944 33.6043 63.3279 34.2338C62.7119 34.8633 62.4039 35.6434 62.4039 36.5739V73.4261C62.4039 74.3567 62.7213 75.1368 63.3563 75.7662C63.9912 76.3957 64.7779 76.7104 65.7165 76.7104ZM55.0482 110C47.4297 110 40.2904 108.556 33.6303 105.669C26.97 102.782 21.1441 98.8403 16.1524 93.843C11.1607 88.8456 7.2207 83.0186 4.33242 76.3621C1.44414 69.7055 0 62.5732 0 54.9651C0 47.3571 1.44351 40.214 4.33054 33.5359C7.21756 26.8578 11.1597 21.0432 16.157 16.0919C21.1544 11.1405 26.9814 7.22071 33.6379 4.33243C40.2945 1.44415 47.4268 0 55.0349 0C62.6429 0 69.786 1.44352 76.4641 4.33054C83.1422 7.21757 88.9568 11.1356 93.9081 16.0846C98.8595 21.0338 102.779 26.8536 105.668 33.5442C108.556 40.2346 110 47.3705 110 54.9518C110 62.5703 108.556 69.7096 105.669 76.3697C102.782 83.03 98.8644 88.847 93.9154 93.821C88.9662 98.7948 83.1464 102.735 76.4558 105.641C69.7654 108.547 62.6295 110 55.0482 110ZM55.0446 103.431C68.4939 103.431 79.9208 98.7143 89.325 89.2804C98.7292 79.8466 103.431 68.4049 103.431 54.9554C103.431 41.5061 98.7395 30.0792 89.356 20.675C79.9724 11.2708 68.5204 6.56876 55 6.56876C41.5802 6.56876 30.1534 11.2605 20.7196 20.644C11.2857 30.0276 6.56875 41.4796 6.56875 55C6.56875 68.4197 11.2857 79.8466 20.7196 89.2804C30.1534 98.7143 41.5951 103.431 55.0446 103.431Z" fill="white"/>
</g>
<defs>
<clipPath id="clip0_4124_63494">
<rect width="110" height="110" fill="white"/>
</clipPath>
</defs>
</svg>
