<svg width="40" height="40" viewBox="0 0 40 40" fill="none" xmlns="http://www.w3.org/2000/svg">
<g opacity="0.5">
<path d="M6.71699 29.6919C6.74337 29.7432 6.78017 29.7925 6.82741 29.8396C6.93408 29.9465 7.05158 30 7.17991 30H32.8207C32.9491 30 33.0666 29.9465 33.1732 29.8396L6.71699 29.6919ZM6.71699 29.6919V29.4871C6.71699 29.5998 6.76339 29.7051 6.86272 29.8042L6.86281 29.8043C6.96188 29.9036 7.06719 29.95 7.17991 29.95H32.8207C32.9335 29.95 33.0388 29.9036 33.1378 29.8043L33.1379 29.8042C33.2373 29.7051 33.2837 29.5998 33.2837 29.4871V10.5129C33.2837 10.4002 33.2373 10.2949 33.1379 10.1958L33.1378 10.1957C33.0388 10.0964 32.9335 10.05 32.8207 10.05H7.17991C7.06719 10.05 6.96188 10.0964 6.86281 10.1957L6.86272 10.1958C6.76339 10.2949 6.71699 10.4002 6.71699 10.5129V10.3081C6.74337 10.2568 6.78017 10.2075 6.82741 10.1604L6.71699 29.6919ZM27.7566 24.7938H22.4203C22.2053 24.7938 22.017 24.7124 21.8575 24.5529C21.6982 24.3936 21.617 24.2054 21.617 23.9904V16.0096C21.617 15.7946 21.6982 15.6065 21.8575 15.4471C22.017 15.2876 22.2053 15.2063 22.4203 15.2063H27.7566C28.2526 15.2063 28.6746 15.3791 29.0194 15.7242L27.7566 24.7938ZM27.7566 24.7938C28.2526 24.7938 28.6746 24.6209 29.0194 24.2758L27.7566 24.7938ZM12.5503 21.4604H16.2966V23.75C16.2966 24.0485 16.3951 24.2988 16.5933 24.497C16.7915 24.6952 17.0416 24.7938 17.3399 24.7938C17.6384 24.7938 17.8887 24.6952 18.0869 24.497C18.2851 24.2988 18.3837 24.0485 18.3837 23.75V16.25C18.3837 15.9515 18.2851 15.7012 18.0869 15.503C17.8887 15.3048 17.6384 15.2063 17.3399 15.2063C17.0416 15.2063 16.7915 15.3048 16.5933 15.503C16.3951 15.7012 16.2966 15.9515 16.2966 16.25V19.3729H12.5503V16.25C12.5503 15.9515 12.4518 15.7012 12.2536 15.503C12.0554 15.3048 11.8051 15.2063 11.5066 15.2063C11.2083 15.2063 10.9582 15.3048 10.76 15.503C10.5618 15.7012 10.4632 15.9515 10.4632 16.25V23.75C10.4632 24.0485 10.5618 24.2988 10.76 24.497C10.9582 24.6952 11.2083 24.7938 11.5066 24.7938C11.8051 24.7938 12.0554 24.6952 12.2536 24.497C12.4518 24.2988 12.5503 24.0485 12.5503 23.75V21.4604ZM29.5374 16.9871C29.5374 16.4913 29.3645 16.0694 29.0194 15.7242V24.2758C29.3645 23.9306 29.5374 23.5087 29.5374 23.0129V16.9871ZM23.7041 22.7063V17.2937H27.2441C27.2923 17.2937 27.339 17.3133 27.3851 17.3592C27.4307 17.4049 27.4503 17.4514 27.4503 17.5V22.5C27.4503 22.5486 27.4307 22.5952 27.385 22.6409L27.4201 22.6761L27.3851 22.6408C27.339 22.6867 27.2924 22.7063 27.2441 22.7063H23.7041ZM5.00664 31.6604C5.59956 32.2533 6.32501 32.55 7.17991 32.55H32.8207C33.6756 32.55 34.4011 32.2533 34.994 31.6604C35.5869 31.0674 35.8837 30.342 35.8837 29.4871V10.5129C35.8837 9.65802 35.5869 8.93257 34.994 8.33964C34.4011 7.74672 33.6756 7.45 32.8207 7.45H7.17991C6.32501 7.45 5.59956 7.74672 5.00664 8.33964C4.41371 8.93257 4.11699 9.65802 4.11699 10.5129V29.4871C4.11699 30.342 4.41371 31.0674 5.00664 31.6604Z" fill="white" stroke="white" stroke-width="0.1"/>
</g>
</svg>
