<svg width="48" height="48" viewBox="0 0 48 48" fill="none" xmlns="http://www.w3.org/2000/svg">
<path d="M6.13616 21.6145C5.81469 21.6145 5.54522 21.5048 5.32776 21.2855C5.11029 21.0661 5.00156 20.7943 5.00156 20.4701C5.00156 20.1459 5.11029 19.8773 5.32776 19.6645C5.54522 19.4517 5.81469 19.3453 6.13616 19.3453H13.767L3.70146 9.2798C3.46559 9.0528 3.34766 8.78324 3.34766 8.4711C3.34766 8.15897 3.46649 7.88497 3.70416 7.6491C3.92896 7.426 4.19624 7.31445 4.50601 7.31445C4.81581 7.31445 5.09121 7.426 5.33221 7.6491L15.3477 17.7146V10.1338C15.3477 9.81229 15.4574 9.54282 15.6767 9.32535C15.896 9.10789 16.1678 8.99915 16.4921 8.99915C16.8163 8.99915 17.0848 9.10789 17.2977 9.32535C17.5105 9.54282 17.6169 9.81229 17.6169 10.1338V20.1722C17.6169 20.5808 17.4786 20.9234 17.2022 21.1998C16.9258 21.4762 16.5832 21.6145 16.1746 21.6145H6.13616ZM7.88621 38.9991C7.10191 38.9991 6.42506 38.7144 5.85566 38.145C5.28626 37.5756 5.00156 36.8987 5.00156 36.1144V26.7683C5.00156 26.4468 5.11124 26.1774 5.33061 25.9599C5.54994 25.7425 5.82172 25.6338 6.14596 25.6338C6.47019 25.6338 6.73872 25.7425 6.95156 25.9599C7.16436 26.1774 7.27076 26.4468 7.27076 26.7683V36.1144C7.27076 36.2939 7.32846 36.4414 7.44386 36.5568C7.55926 36.6722 7.70671 36.7299 7.88621 36.7299H22.6362C22.9576 36.7299 23.2271 36.8395 23.4445 37.0589C23.662 37.2782 23.7707 37.55 23.7707 37.8742C23.7707 38.1985 23.662 38.467 23.4445 38.6798C23.2271 38.8926 22.9576 38.9991 22.6362 38.9991H7.88621ZM41.8571 25.7683C41.5328 25.7683 41.2643 25.6596 41.0515 25.4421C40.8387 25.2247 40.7323 24.9552 40.7323 24.6338V11.8838C40.7323 11.7043 40.6746 11.5569 40.5592 11.4415C40.4438 11.3261 40.2963 11.2684 40.1168 11.2684H22.7707C22.4492 11.2684 22.1798 11.1587 21.9623 10.9394C21.7449 10.72 21.6362 10.4482 21.6362 10.124C21.6362 9.79974 21.7449 9.5312 21.9623 9.3184C22.1798 9.10557 22.4492 8.99915 22.7707 8.99915H40.1168C40.9011 8.99915 41.578 9.28385 42.1474 9.85325C42.7168 10.4227 43.0015 11.0995 43.0015 11.8838V24.6338C43.0015 24.9552 42.8918 25.2247 42.6724 25.4421C42.4531 25.6596 42.1813 25.7683 41.8571 25.7683ZM28.8669 38.9991C28.4583 38.9991 28.1157 38.8608 27.8393 38.5844C27.5628 38.3079 27.4246 37.9654 27.4246 37.5567V30.8645C27.4246 30.4559 27.5628 30.1133 27.8393 29.8369C28.1157 29.5604 28.4583 29.4222 28.8669 29.4222H41.5591C41.9678 29.4222 42.3103 29.5604 42.5868 29.8369C42.8632 30.1133 43.0015 30.4559 43.0015 30.8645V37.5567C43.0015 37.9654 42.8632 38.3079 42.5868 38.5844C42.3103 38.8608 41.9678 38.9991 41.5591 38.9991H28.8669Z" fill="white"/>
</svg>
