<svg width="110" height="110" viewBox="0 0 110 110" fill="none" xmlns="http://www.w3.org/2000/svg">
<g clip-path="url(#clip0_4124_64147)">
<path d="M47.1955 74.2499L73.1477 57.6387C74.1348 57.0076 74.6284 56.1298 74.6284 55.0055C74.6284 53.8811 74.1348 52.9997 73.1477 52.3613L47.1955 35.7501C46.1341 35.0153 45.0522 34.9533 43.9499 35.564C42.8477 36.1748 42.2966 37.1164 42.2966 38.3888V71.6112C42.2966 72.8836 42.8477 73.8252 43.9499 74.436C45.0522 75.0467 46.1341 74.9847 47.1955 74.2499ZM55.0097 110C47.462 110 40.3508 108.556 33.6759 105.669C27.001 102.782 21.1638 98.8403 16.1643 93.843C11.1646 88.8456 7.2207 83.0109 4.33242 76.339C1.44414 69.667 0 62.5573 0 55.0097C0 47.4027 1.44351 40.2525 4.33054 33.5591C7.21756 26.8655 11.1597 21.0432 16.157 16.0919C21.1544 11.1405 26.989 7.22071 33.661 4.33243C40.333 1.44415 47.4427 0 54.9903 0C62.5973 0 69.7475 1.44352 76.4409 4.33054C83.1345 7.21757 88.9568 11.1356 93.9081 16.0846C98.8595 21.0338 102.779 26.8536 105.668 33.5442C108.556 40.2346 110 47.3833 110 54.9903C110 62.538 108.556 69.6492 105.669 76.3241C102.782 82.999 98.8644 88.8362 93.9154 93.8357C88.9662 98.8354 83.1464 102.779 76.4558 105.668C69.7654 108.556 62.6167 110 55.0097 110ZM55 103.431C68.4791 103.431 79.9208 98.7143 89.325 89.2804C98.7292 79.8466 103.431 68.4197 103.431 55C103.431 41.5209 98.7292 30.0792 89.325 20.675C79.9208 11.2708 68.4791 6.56876 55 6.56876C41.5802 6.56876 30.1534 11.2708 20.7196 20.675C11.2857 30.0792 6.56875 41.5209 6.56875 55C6.56875 68.4197 11.2857 79.8466 20.7196 89.2804C30.1534 98.7143 41.5802 103.431 55 103.431Z" fill="white"/>
</g>
<defs>
<clipPath id="clip0_4124_64147">
<rect width="110" height="110" fill="white"/>
</clipPath>
</defs>
</svg>
