<svg width="37" height="33" viewBox="0 0 37 33" fill="none" xmlns="http://www.w3.org/2000/svg">
<path d="M22.0432 31.6289L22.0431 31.6289C21.9325 31.9135 21.7476 32.1465 21.4943 32.3244C21.2374 32.505 20.947 32.5956 20.6306 32.5956C20.1099 32.5956 19.6841 32.3752 19.3747 31.9508C19.0586 31.5175 19.0054 31.0315 19.2088 30.5272C19.209 30.5266 19.2093 30.526 19.2096 30.5253L25.8363 13.4231L25.8393 13.4156L25.8427 13.4083C25.9703 13.132 26.1581 12.9058 26.4044 12.7349M22.0432 31.6289L26.5502 12.9451M22.0432 31.6289L22.0446 31.6251L23.6126 27.3944H31.8232L33.3911 31.5995L33.3908 31.5997L33.3958 31.6113C33.5213 31.9029 33.7054 32.1423 33.9498 32.3215L33.9499 32.3216C34.2033 32.507 34.501 32.5956 34.8309 32.5956C35.3519 32.5956 35.775 32.3747 36.0763 31.9475L36.0763 31.9475C36.3806 31.516 36.4306 31.0397 36.2255 30.5518L29.5992 13.4233L29.5962 13.4156L29.5927 13.408C29.4648 13.1319 29.2772 12.9059 29.0312 12.7351M22.0432 31.6289L28.8852 12.9451M26.4044 12.7349L26.5502 12.9451M26.4044 12.7349C26.4044 12.735 26.4043 12.735 26.4042 12.7351L26.5502 12.9451M26.4044 12.7349C26.6551 12.5608 26.9366 12.4728 27.2422 12.4728H28.1933C28.4989 12.4728 28.7805 12.5608 29.0312 12.7351M26.5502 12.9451C26.758 12.8007 26.9886 12.7286 27.2422 12.7286H28.1933C28.4468 12.7286 28.6775 12.8007 28.8852 12.9451M29.0312 12.7351C29.0312 12.7351 29.0312 12.735 29.0312 12.735L28.8852 12.9451M29.0312 12.7351L28.8852 12.9451M19.1948 6.16305C18.7461 7.54661 18.0277 9.04017 17.0352 10.6444C16.0186 12.2875 14.9461 13.6928 13.8184 14.8624C13.0798 14.0774 12.388 13.2132 11.743 12.2696C11.0446 11.2475 10.4528 10.2269 9.96702 9.20782L9.89755 9.0621H9.73612H7.02422H6.64446L6.78717 9.41403C7.36638 10.8424 8.10383 12.2461 8.99883 13.6254C9.84013 14.9222 10.7268 16.0563 11.6594 17.026L4.25593 24.4457C3.96058 24.7411 3.81053 25.1058 3.81053 25.5249C3.81053 25.9443 3.96054 26.3091 4.25593 26.6045C4.56604 26.9146 4.93881 27.0738 5.36287 27.063C5.77657 27.0526 6.13293 26.8981 6.41656 26.6026L13.8137 19.215L18.6701 24.1951L18.9532 24.4854L19.0933 24.1049L20.0606 21.4779L20.1164 21.3263L20.0036 21.2108L15.9726 17.0826C17.298 15.7365 18.5431 14.0549 19.7094 12.0416L19.7094 12.0416C20.889 10.005 21.7615 8.04535 22.324 6.16305H25.0286C25.4557 6.16305 25.8257 6.01614 26.1209 5.72073C26.4165 5.42552 26.5634 5.05546 26.5634 4.62825C26.5634 4.20105 26.4165 3.83098 26.1209 3.53577C25.8257 3.24036 25.4557 3.09346 25.0286 3.09346H15.3803V1.87372C15.3803 1.44652 15.2334 1.07637 14.9379 0.78092C14.6427 0.485692 14.2726 0.338927 13.8455 0.338927C13.4184 0.338927 13.0484 0.485692 12.7532 0.78092C12.4577 1.07637 12.3107 1.44652 12.3107 1.87372V3.09346H2.66242C2.23529 3.09346 1.86528 3.24038 1.5701 3.53582M19.1948 6.16305L1.5701 3.53582M19.1948 6.16305H2.66242C2.23528 6.16305 1.86525 6.01611 1.57007 5.72065M19.1948 6.16305C19.2226 6.07736 19.2494 5.99209 19.2751 5.90725L1.57007 5.72065M1.5701 3.53582C1.57012 3.5358 1.57013 3.53579 1.57015 3.53577L1.75091 3.71674L1.56994 3.53598C1.56999 3.53593 1.57005 3.53587 1.5701 3.53582ZM1.57007 5.72065C1.57009 5.72068 1.57012 5.7207 1.57015 5.72073L1.75092 5.53975M1.57007 5.72065C1.57002 5.72061 1.56998 5.72056 1.56994 5.72052L1.75092 5.53975M1.75092 5.53975C1.50592 5.29503 1.38342 4.9912 1.38342 4.62825C1.38342 4.2653 1.50592 3.96147 1.75092 3.71675C1.99564 3.47176 2.29947 3.34926 2.66242 3.34926H12.3107L1.75092 5.53975ZM24.6226 24.6198L27.7175 16.3051L30.8125 24.6198H24.6226Z" fill="white" stroke="white" stroke-width="0.511598"/>
</svg>
