<svg width="40" height="41" viewBox="0 0 40 41" fill="none" xmlns="http://www.w3.org/2000/svg">
<g opacity="0.5">
<path d="M19.9987 29.2083C20.4709 29.2083 20.867 29.0483 21.187 28.7283C21.5059 28.4094 21.6654 28.0138 21.6654 27.5416V20.8333C21.6654 20.361 21.5059 19.9721 21.187 19.6666C20.867 19.361 20.4709 19.2083 19.9987 19.2083C19.5265 19.2083 19.1309 19.3677 18.812 19.6866C18.492 20.0066 18.332 20.4027 18.332 20.8749V27.5833C18.332 28.0555 18.492 28.4444 18.812 28.7499C19.1309 29.0555 19.5265 29.2083 19.9987 29.2083ZM19.9987 15.8749C20.4709 15.8749 20.867 15.7149 21.187 15.3949C21.5059 15.076 21.6654 14.6805 21.6654 14.2083C21.6654 13.736 21.5059 13.3399 21.187 13.0199C20.867 12.701 20.4709 12.5416 19.9987 12.5416C19.5265 12.5416 19.1309 12.701 18.812 13.0199C18.492 13.3399 18.332 13.736 18.332 14.2083C18.332 14.6805 18.492 15.076 18.812 15.3949C19.1309 15.7149 19.5265 15.8749 19.9987 15.8749ZM19.9987 37.5416C17.6931 37.5416 15.5265 37.1038 13.4987 36.2283C11.4709 35.3538 9.70703 34.1666 8.20703 32.6666C6.70703 31.1666 5.51981 29.4027 4.64536 27.3749C3.76981 25.3471 3.33203 23.1805 3.33203 20.8749C3.33203 18.5694 3.76981 16.4027 4.64536 14.3749C5.51981 12.3471 6.70703 10.5833 8.20703 9.08325C9.70703 7.58325 11.4709 6.39547 13.4987 5.51992C15.5265 4.64547 17.6931 4.20825 19.9987 4.20825C22.3043 4.20825 24.4709 4.64547 26.4987 5.51992C28.5265 6.39547 30.2904 7.58325 31.7904 9.08325C33.2904 10.5833 34.4776 12.3471 35.352 14.3749C36.2276 16.4027 36.6654 18.5694 36.6654 20.8749C36.6654 23.1805 36.2276 25.3471 35.352 27.3749C34.4776 29.4027 33.2904 31.1666 31.7904 32.6666C30.2904 34.1666 28.5265 35.3538 26.4987 36.2283C24.4709 37.1038 22.3043 37.5416 19.9987 37.5416ZM19.9987 34.2083C23.6931 34.2083 26.8393 32.9099 29.437 30.3133C32.0337 27.7155 33.332 24.5694 33.332 20.8749C33.332 17.1805 32.0337 14.0344 29.437 11.4366C26.8393 8.83992 23.6931 7.54159 19.9987 7.54159C16.3043 7.54159 13.1587 8.83992 10.562 11.4366C7.96425 14.0344 6.66536 17.1805 6.66536 20.8749C6.66536 24.5694 7.96425 27.7155 10.562 30.3133C13.1587 32.9099 16.3043 34.2083 19.9987 34.2083Z" fill="white"/>
</g>
</svg>
